<?xml version="1.0" standalone="no"?>
<!DOCTYPE svg PUBLIC "-//W3C//DTD SVG 20010904//EN"
 "http://www.w3.org/TR/2001/REC-SVG-20010904/DTD/svg10.dtd">
<svg version="1.0" xmlns="http://www.w3.org/2000/svg"
 width="117.000000pt" height="116.000000pt" viewBox="0 0 117.000000 116.000000"
 preserveAspectRatio="xMidYMid meet">

<g transform="translate(0.000000,116.000000) scale(0.100000,-0.100000)"
fill="#000000" stroke="none">
<path d="M555 1140 c2 -3 -4 -6 -13 -6 -55 -2 -190 -37 -212 -54 -14 -12 -37
-28 -53 -38 -15 -9 -25 -23 -22 -29 2 -7 0 -12 -6 -10 -13 3 -114 -83 -128
-108 -19 -38 -51 -114 -51 -123 0 -5 -7 -23 -15 -38 -8 -16 -15 -39 -15 -51 0
-12 -5 -25 -11 -29 -7 -4 -9 -25 -5 -58 4 -28 8 -72 11 -97 2 -26 9 -58 15
-73 5 -15 9 -30 9 -34 -5 -33 10 -57 113 -176 76 -87 92 -101 148 -123 31 -13
61 -23 68 -23 7 0 20 -5 30 -10 36 -22 130 -46 148 -39 10 4 34 8 52 8 18 1
42 6 53 11 13 7 19 7 19 1 0 -7 9 -7 26 -1 15 6 47 15 72 21 25 5 60 22 78 37
18 15 47 38 64 52 18 14 48 40 68 58 20 17 39 32 43 32 4 0 13 17 20 38 6 20
18 40 25 45 7 4 11 14 8 21 -3 8 0 17 5 21 6 3 9 11 6 16 -4 5 -2 9 2 9 5 0 9
9 10 21 1 11 9 42 18 69 14 41 14 61 5 132 -14 109 -46 215 -76 253 -79 98
-160 177 -203 196 -103 46 -206 79 -256 82 -30 2 -52 1 -50 -3z m-179 -75
c-11 -8 -25 -15 -30 -15 -6 1 0 7 14 15 32 19 40 18 16 0z m543 -61 c14 -12
-19 -1 -35 12 -18 14 -18 14 6 3 14 -6 27 -13 29 -15z m-533 -36 c12 -14 13
-18 3 -10 -9 6 -18 10 -21 7 -2 -3 -5 2 -5 10 0 19 0 19 23 -7z m64 8 c-7 -7
-14 -6 -21 1 -9 9 -7 12 9 10 14 -1 18 -5 12 -11z m48 -15 c3 -8 -1 -12 -9 -9
-7 2 -15 10 -17 17 -3 8 1 12 9 9 7 -2 15 -10 17 -17z m211 0 c12 -21 5 -32
-15 -24 -16 6 -19 43 -4 43 5 0 14 -8 19 -19z m-56 2 c-7 -2 -19 -2 -25 0 -7
3 -2 5 12 5 14 0 19 -2 13 -5z m164 -25 c-3 -8 -6 -5 -6 6 -1 11 2 17 5 13 3
-3 4 -12 1 -19z m-367 2 c0 -5 -7 -10 -16 -10 -8 0 -12 5 -9 10 3 6 10 10 16
10 5 0 9 -4 9 -10z m151 -13 c-10 -9 -11 -8 -5 6 3 10 9 15 12 12 3 -3 0 -11
-7 -18z m-111 -5 c0 -5 -7 -9 -15 -9 -8 0 -12 4 -9 9 3 4 9 8 15 8 5 0 9 -4 9
-8z m388 -21 c3 -8 -1 -12 -9 -9 -7 2 -15 10 -17 17 -3 8 1 12 9 9 7 -2 15
-10 17 -17z m-708 6 c0 -2 -15 -16 -32 -33 l-33 -29 29 33 c28 30 36 37 36 29z
m611 -30 c-10 -9 -11 -8 -5 6 3 10 9 15 12 12 3 -3 0 -11 -7 -18z m53 15 c3
-5 -1 -9 -9 -9 -8 0 -15 4 -15 9 0 4 4 8 9 8 6 0 12 -4 15 -8z m-511 -28 c-4
-13 -26 -11 -30 3 -2 6 4 10 14 9 10 -2 17 -7 16 -12z m559 -8 c4 -19 1 -22
-14 -18 -21 5 -23 13 -6 30 16 16 15 16 20 -12z m-612 4 c0 -5 -8 -10 -17 -10
-15 0 -16 2 -3 10 19 12 20 12 20 0z m120 -14 c0 -2 -7 -7 -16 -10 -8 -3 -12
-2 -9 4 6 10 25 14 25 6z m446 -9 c4 -4 0 -7 -9 -7 -9 0 -18 4 -21 9 -7 10 20
9 30 -2z m-227 -67 l12 -60 39 20 c40 20 55 35 24 23 -12 -4 -15 -2 -12 8 3 8
14 13 24 11 10 -2 25 -4 32 -4 15 -2 16 -14 1 -23 -6 -4 -8 -14 -4 -23 3 -9 3
-13 -1 -9 -9 9 -54 -32 -54 -48 0 -6 23 -22 50 -35 28 -13 50 -27 50 -32 0 -4
-19 -8 -43 -8 -32 0 -44 -4 -44 -15 0 -8 5 -11 10 -8 6 4 8 -3 5 -15 -5 -16
-2 -22 10 -22 12 0 11 -5 -6 -23 -12 -13 -22 -29 -22 -36 0 -7 -6 -11 -15 -8
-8 4 -17 2 -20 -3 -4 -6 -24 -10 -45 -10 -28 0 -43 6 -53 20 -13 19 -15 19
-28 4 -12 -15 -14 -15 -19 7 -3 13 0 35 7 49 25 48 18 60 -34 61 -27 1 -54 1
-60 0 -7 -1 -13 3 -13 9 0 5 4 10 9 10 5 0 29 12 55 26 l46 26 -35 45 c-19 26
-33 48 -31 50 2 2 24 -6 49 -17 26 -12 50 -19 56 -16 5 4 15 31 22 61 7 30 15
52 19 50 4 -3 13 -32 19 -65z m-319 56 c0 -3 -4 -8 -10 -11 -5 -3 -10 -1 -10
4 0 6 5 11 10 11 6 0 10 -2 10 -4z m50 0 c0 -2 -8 -10 -17 -17 -16 -13 -17
-12 -4 4 13 16 21 21 21 13z m734 -22 c3 -8 2 -12 -4 -9 -6 3 -10 10 -10 16 0
14 7 11 14 -7z m-123 -77 c-1 -12 -15 -9 -19 4 -3 6 1 10 8 8 6 -3 11 -8 11
-12z m46 -2 c0 -8 -4 -15 -9 -15 -4 0 -8 7 -8 15 0 8 4 15 8 15 5 0 9 -7 9
-15z m-781 -44 c-4 -5 -13 -8 -22 -4 -11 4 -12 8 -3 20 14 16 36 2 25 -16z
m712 -2 c-3 -8 -7 -3 -11 10 -4 17 -3 21 5 13 5 -5 8 -16 6 -23z m55 -4 c-6
-17 -25 -15 -31 3 -2 7 5 12 17 12 14 0 19 -5 14 -15z m-810 -20 c-12 -32 -23
-14 -14 23 1 2 5 1 11 -3 5 -3 7 -12 3 -20z m74 0 c0 -8 -4 -15 -9 -15 -4 0
-8 7 -8 15 0 8 4 15 8 15 5 0 9 -7 9 -15z m-190 -37 c-3 -7 -5 -2 -5 12 0 14
2 19 5 13 2 -7 2 -19 0 -25z m149 5 c-10 -10 -19 5 -10 18 6 11 8 11 12 0 2
-7 1 -15 -2 -18z m631 -15 c-3 -7 -5 -2 -5 12 0 14 2 19 5 13 2 -7 2 -19 0
-25z m-489 -38 c-2 -16 -1 -27 3 -24 5 2 13 -4 18 -15 13 -24 14 -34 2 -26
-14 8 -23 -12 -16 -35 8 -26 35 -26 35 1 0 18 4 17 42 -15 23 -20 45 -36 50
-36 4 0 8 -6 8 -12 0 -9 18 -13 55 -14 45 -1 59 -6 75 -25 11 -14 19 -18 20
-11 0 7 4 11 9 8 14 -9 62 12 82 35 12 15 19 17 25 8 4 -8 -5 -23 -25 -41 -29
-26 -48 -33 -80 -29 -7 2 -10 -2 -7 -7 8 -14 -57 -24 -101 -16 -82 15 -159 74
-194 149 -21 45 -28 186 -8 152 6 -11 9 -32 7 -47z m-114 32 c2 -4 -4 -8 -14
-8 -10 0 -16 4 -14 8 3 4 9 8 14 8 5 0 11 -4 14 -8z m746 -71 c0 -6 -4 -13
-10 -16 -5 -3 -10 1 -10 9 0 9 5 16 10 16 6 0 10 -4 10 -9z m-46 -31 c-6 -6
-10 -3 -10 10 0 13 4 16 10 10 7 -7 7 -13 0 -20z m79 -1 c-4 -15 -8 -17 -14
-8 -8 14 -3 29 11 29 4 0 6 -9 3 -21z m-795 -11 c-3 -7 -12 -14 -21 -16 -12
-2 -15 1 -11 12 7 19 38 22 32 4z m42 -19 c0 -6 -4 -7 -10 -4 -5 3 -10 11 -10
16 0 6 5 7 10 4 6 -3 10 -11 10 -16z m633 -4 c-7 -21 -12 -19 -10 4 0 11 5 18
9 15 4 -3 5 -11 1 -19z m82 3 c-19 -11 -30 -5 -21 11 4 6 14 7 22 4 15 -5 14
-7 -1 -15z m-183 -10 c-6 -6 -15 -8 -19 -4 -4 4 -1 11 7 16 19 12 27 3 12 -12z
m-602 -26 c0 -15 -2 -15 -10 -2 -13 20 -13 33 0 25 6 -3 10 -14 10 -23z m44 3
c3 -8 1 -15 -4 -15 -6 0 -10 7 -10 15 0 8 2 15 4 15 2 0 6 -7 10 -15z m-136
-60 c-3 -3 -9 2 -12 12 -6 14 -5 15 5 6 7 -7 10 -15 7 -18z m110 5 c-7 -10
-14 -17 -17 -15 -4 4 18 35 25 35 2 0 -1 -9 -8 -20z m688 -47 c-10 -10 -19 5
-10 18 6 11 8 11 12 0 2 -7 1 -15 -2 -18z m-526 -19 c0 -2 -7 -4 -15 -4 -8 0
-15 4 -15 10 0 5 7 7 15 4 8 -4 15 -8 15 -10z m-52 -6 c-6 -18 -28 -21 -28 -4
0 9 7 16 16 16 9 0 14 -5 12 -12z m597 -7 c-3 -6 -11 -11 -16 -11 -5 0 -4 6 3
14 14 16 24 13 13 -3z m-40 -1 c3 -5 -3 -10 -14 -10 -12 0 -21 5 -21 10 0 6 6
10 14 10 8 0 18 -4 21 -10z m-517 -28 c2 -7 -2 -10 -12 -6 -9 3 -16 11 -16 16
0 13 23 5 28 -10z m396 -8 c3 -8 2 -12 -4 -9 -6 3 -10 10 -10 16 0 14 7 11 14
-7z m-439 -5 c11 -16 1 -19 -13 -3 -7 8 -8 14 -3 14 5 0 13 -5 16 -11z m390
-9 c-3 -5 -12 -10 -18 -10 -7 0 -6 4 3 10 19 12 23 12 15 0z m-348 -42 c-3 -7
-5 -2 -5 12 0 14 2 19 5 13 2 -7 2 -19 0 -25z m170 26 c-3 -3 -12 -4 -19 -1
-8 3 -5 6 6 6 11 1 17 -2 13 -5z m-51 -17 c14 5 20 -18 7 -30 -7 -8 -33 23
-32 38 0 6 3 5 5 -2 3 -7 12 -9 20 -6z m269 3 c-3 -5 -10 -10 -16 -10 -5 0 -9
5 -9 10 0 6 7 10 16 10 8 0 12 -4 9 -10z m-51 -31 c-8 -13 -24 -1 -24 18 0 13
3 13 15 3 8 -7 12 -16 9 -21z m-149 11 c3 -5 -3 -10 -15 -10 -12 0 -18 5 -15
10 3 6 10 10 15 10 5 0 12 -4 15 -10z m195 -18 c0 -5 -7 -9 -15 -9 -8 0 -12 4
-9 9 3 4 9 8 15 8 5 0 9 -4 9 -8z m-479 -19 c13 -16 12 -17 -3 -4 -10 7 -18
15 -18 17 0 8 8 3 21 -13z m230 -16 c-10 -9 -11 -8 -5 6 3 10 9 15 12 12 3 -3
0 -11 -7 -18z m339 -41 c0 -2 -7 -7 -16 -10 -8 -3 -12 -2 -9 4 6 10 25 14 25
6z m-292 -53 c-10 -2 -26 -2 -35 0 -10 3 -2 5 17 5 19 0 27 -2 18 -5z"/>
<path d="M580 765 c0 -11 -3 -30 -6 -42 -5 -17 -2 -23 10 -23 18 0 22 45 6 70
-8 12 -10 12 -10 -5z"/>
<path d="M493 707 c24 -32 47 -41 54 -22 1 6 -16 20 -38 32 l-41 23 25 -33z"/>
<path d="M658 714 c-16 -8 -28 -21 -28 -29 0 -25 27 -17 50 15 24 33 19 37
-22 14z"/>
<path d="M573 673 c-19 -7 -16 -33 4 -33 9 0 13 3 10 7 -4 3 -2 12 4 20 12 13
5 16 -18 6z"/>
<path d="M475 625 l-30 -14 28 -1 c16 0 35 7 43 15 20 19 1 19 -41 0z"/>
<path d="M666 625 c10 -8 28 -14 39 -14 18 0 17 1 -5 14 -34 20 -60 20 -34 0z"/>
<path d="M670 509 c0 -5 5 -7 10 -4 6 3 10 8 10 11 0 2 -4 4 -10 4 -5 0 -10
-5 -10 -11z"/>
<path d="M515 340 c3 -5 10 -10 16 -10 5 0 9 5 9 10 0 6 -7 10 -16 10 -8 0
-12 -4 -9 -10z"/>
<path d="M608 333 c7 -3 16 -2 19 1 4 3 -2 6 -13 5 -11 0 -14 -3 -6 -6z"/>
</g>
</svg>
